<?xml version="1.0" standalone="no"?>
<!DOCTYPE svg PUBLIC "-//W3C//DTD SVG 20010904//EN"
 "http://www.w3.org/TR/2001/REC-SVG-20010904/DTD/svg10.dtd">
<svg version="1.0" xmlns="http://www.w3.org/2000/svg"
 width="256.000000pt" height="256.000000pt" viewBox="0 0 256.000000 256.000000"
 preserveAspectRatio="xMidYMid meet">
<metadata>
Created by potrace 1.11, written by Peter Selinger 2001-2013
</metadata>
<g transform="translate(0.000000,256.000000) scale(0.100000,-0.100000)"
fill="#000000" stroke="none">
<path d="M1197 2555 c-1 -2 -27 -5 -57 -9 -89 -10 -200 -31 -235 -46 -11 -4
-42 -16 -70 -25 -84 -30 -204 -93 -289 -153 -83 -58 -256 -221 -256 -241 0 -6
-4 -11 -8 -11 -4 0 -19 -18 -32 -40 -14 -22 -28 -40 -31 -40 -3 0 -14 -18 -24
-40 -10 -22 -22 -40 -27 -40 -4 0 -8 -9 -8 -20 0 -11 -4 -20 -8 -20 -13 0 -93
-206 -106 -271 -2 -8 -6 -21 -9 -29 -25 -68 -39 -318 -23 -442 15 -119 75
-340 97 -354 5 -3 9 -14 9 -25 0 -10 5 -19 10 -19 6 0 10 -8 10 -19 0 -10 9
-30 20 -44 11 -14 20 -30 20 -35 0 -6 6 -17 13 -24 6 -7 30 -40 52 -72 44 -66
198 -225 260 -269 251 -179 476 -256 755 -260 198 -2 353 27 515 98 17 8 37
15 45 17 8 2 17 6 20 9 3 4 25 17 50 29 137 69 300 211 409 355 134 177 227
411 248 625 10 97 7 267 -7 335 -6 33 -13 69 -15 80 -15 82 -58 202 -106 299
-72 145 -228 336 -349 427 -25 18 -47 36 -50 39 -8 9 -101 65 -145 88 -98 50
-188 85 -280 108 -16 4 -37 9 -45 11 -61 16 -340 38 -353 28z"/>
</g>
</svg>
